<svg width="15" height="14" viewBox="0 0 15 14" fill="none" xmlns="http://www.w3.org/2000/svg">
<g opacity="0.30412">
<path fill-rule="evenodd" clip-rule="evenodd" d="M2.04598 7.05371H3.5869C3.83005 7.05371 4.02716 7.25082 4.02716 7.49397V12.6671C4.02716 12.9102 3.83005 13.1073 3.5869 13.1073H2.04598C1.80283 13.1073 1.60571 12.9102 1.60571 12.6671V7.49397C1.60571 7.25082 1.80283 7.05371 2.04598 7.05371Z" stroke="black" stroke-width="1.47286" stroke-linecap="round" stroke-linejoin="round"/>
<path fill-rule="evenodd" clip-rule="evenodd" d="M11.7318 1H13.2727C13.5158 1 13.713 1.19711 13.713 1.44026V12.667C13.713 12.9101 13.5158 13.1073 13.2727 13.1073H11.7318C11.4886 13.1073 11.2915 12.9101 11.2915 12.667V1.44026C11.2915 1.19711 11.4886 1 11.7318 1Z" stroke="black" stroke-width="1.47286" stroke-linecap="round" stroke-linejoin="round"/>
<path fill-rule="evenodd" clip-rule="evenodd" d="M6.88875 4.02686H8.42967C8.67282 4.02686 8.86994 4.23805 8.86994 4.49857V12.6356C8.86994 12.8961 8.67282 13.1073 8.42967 13.1073H6.88875C6.6456 13.1073 6.44849 12.8961 6.44849 12.6356V4.49857C6.44849 4.23805 6.6456 4.02686 6.88875 4.02686Z" stroke="black" stroke-width="1.47286" stroke-linecap="round" stroke-linejoin="round"/>
</g>
</svg>
