<svg width="16" height="17" viewBox="0 0 16 17" fill="none" xmlns="http://www.w3.org/2000/svg">
<g opacity="0.30412">
<path fill-rule="evenodd" clip-rule="evenodd" d="M5.12994 13.5723L2.21442 15.6183L2.71493 12.106C1.50203 10.9291 0.825684 9.29869 0.825684 7.49701C0.825684 3.90881 3.50838 1 7.76937 1C12.0304 1 14.713 3.90881 14.713 7.49701C14.713 11.0852 12.0304 13.994 7.76937 13.994C6.80432 13.994 5.92023 13.8448 5.12994 13.5723Z" stroke="black" stroke-width="1.47286" stroke-linecap="round" stroke-linejoin="round"/>
<path fill-rule="evenodd" clip-rule="evenodd" d="M6.70264 10.1919C6.70264 10.6188 7.0506 10.9671 7.47783 10.9671C7.90466 10.9671 8.25301 10.6188 8.25301 10.1919C8.25301 9.7651 7.90466 9.41675 7.47783 9.41675C7.0506 9.41675 6.70264 9.7651 6.70264 10.1919Z" fill="black" stroke="black" stroke-width="0.5"/>
<path fill-rule="evenodd" clip-rule="evenodd" d="M4.68348 6.14592C4.83721 6.42222 5.20164 6.52964 5.49644 6.38557C5.79184 6.24178 5.90669 5.9012 5.75296 5.62519C5.24294 4.70833 5.94527 3.5538 7.11935 3.5679C8.54603 3.59073 9.18507 5.383 7.91935 6.15636C7.2131 6.58772 6.79169 7.28889 6.79169 8.03208C6.79169 8.84659 7.99742 8.84321 7.99742 8.03208C7.99742 7.6712 8.21476 7.32273 8.57889 7.10028C10.8387 5.71992 9.74482 2.48131 7.13985 2.44043C5.0446 2.41421 3.75416 4.47742 4.68348 6.14592Z" fill="black" stroke="black" stroke-width="0.5"/>
</g>
</svg>
