<svg width="17" height="17" viewBox="0 0 17 17" fill="none" xmlns="http://www.w3.org/2000/svg">
<path fill-rule="evenodd" clip-rule="evenodd" d="M13.32 10.497L15.9725 13.1396C16.6959 13.9403 16.6959 15.1415 15.9725 15.9423C15.1687 16.7431 13.963 16.7431 13.1592 15.9423L10.5068 13.2997C9.54222 13.7802 8.41692 14.1005 7.29162 14.1005C3.51385 14.1005 0.459473 11.0575 0.459473 7.2939C0.459473 3.53025 3.51385 0.487305 7.29162 0.487305C11.0694 0.487305 14.1238 3.53025 14.1238 7.2939C14.1238 8.41499 13.8023 9.53607 13.32 10.497ZM2.06704 7.2939C2.06704 10.1767 4.39801 12.4989 7.29162 12.4989C10.1852 12.4989 12.5162 10.1767 12.5162 7.2939C12.5162 4.41111 10.1852 2.08886 7.29162 2.08886C4.39801 2.08886 2.06704 4.41111 2.06704 7.2939Z" fill="#1C1D20" fill-opacity="0.801546"/>
</svg>
