<svg width="59" height="15" viewBox="0 0 59 15" fill="none" xmlns="http://www.w3.org/2000/svg">
<path fill-rule="evenodd" clip-rule="evenodd" d="M23.3703 9.85505C23.2166 9.85505 23.0814 9.88036 22.9667 9.93045C22.8684 9.97396 22.7625 10.0354 22.652 10.1134C22.5417 10.191 22.4814 10.226 22.4502 10.2411C22.2582 10.336 21.9471 10.3843 21.5252 10.3843C20.9584 10.3843 20.5076 10.1923 20.1464 9.79738C19.7789 9.39664 19.6003 8.90205 19.6003 8.286C19.6003 7.64239 19.7763 7.1392 20.1384 6.7473C20.4954 6.36125 20.9812 6.17378 21.6239 6.17378C21.7196 6.17378 21.8534 6.19124 22.0212 6.22488C22.2235 6.26587 22.3283 6.30534 22.3708 6.32607C22.4445 6.36681 22.522 6.41867 22.6008 6.4799C22.7044 6.56085 22.8132 6.62688 22.9238 6.67596C23.0483 6.73163 23.1994 6.75894 23.3845 6.75894C23.6509 6.75894 23.8789 6.64941 24.0447 6.4422C24.1986 6.24816 24.2768 6.02047 24.2768 5.76494C24.2768 5.26604 23.9882 4.86733 23.4186 4.58018C22.8995 4.31883 22.2149 4.18628 21.3841 4.18628C20.6325 4.18628 19.9482 4.36336 19.351 4.7125C18.7532 5.06264 18.281 5.55394 17.9482 6.17326C17.6171 6.78855 17.4492 7.4992 17.4492 8.286C17.4492 9.04322 17.6091 9.74095 17.9246 10.3593C18.2429 10.9844 18.7004 11.4815 19.2842 11.8365C19.8678 12.1917 20.5505 12.3718 21.3138 12.3718C21.8199 12.3718 22.3048 12.3106 22.7548 12.1899C23.2127 12.0667 23.5892 11.897 23.875 11.6855C24.1977 11.4461 24.3614 11.1739 24.3614 10.8766C24.3614 10.5877 24.2726 10.3443 24.0975 10.1526C23.9163 9.95525 23.6716 9.85505 23.3703 9.85505Z" fill="#00ADC6"/>
<mask id="mask0" mask-type="alpha" maskUnits="userSpaceOnUse" x="34" y="1" width="8" height="12">
<path fill-rule="evenodd" clip-rule="evenodd" d="M34.2632 1.26294H41.0653V12.4933H34.2632V1.26294Z" fill="white"/>
</mask>
<g mask="url(#mask0)">
<path fill-rule="evenodd" clip-rule="evenodd" d="M38.3061 7.89642L40.1783 6.06519C40.4432 5.81837 40.5779 5.54182 40.5779 5.24262C40.5779 5.00022 40.4778 4.76487 40.281 4.54332C40.0807 4.31839 39.8472 4.2045 39.5876 4.2045C39.3026 4.2045 39.0503 4.31917 38.8397 4.54307L36.3247 7.12884V2.37299C36.3247 2.06232 36.2268 1.79751 36.0325 1.58509C35.8371 1.37136 35.5884 1.26294 35.2939 1.26294C34.9993 1.26294 34.7506 1.37136 34.5552 1.58509C34.3612 1.79725 34.2632 2.06205 34.2632 2.37299V11.3832C34.2632 11.6942 34.3615 11.9592 34.5549 12.1706C34.7502 12.3849 34.9988 12.4933 35.2939 12.4933C35.5887 12.4933 35.8373 12.3849 36.0328 12.1709C36.2268 11.959 36.3247 11.6939 36.3247 11.3832V9.83687L36.7548 9.41725L39.2629 12.1232C39.4679 12.3653 39.7229 12.4878 40.0211 12.4878C40.2733 12.4878 40.5106 12.3864 40.7264 12.1863C40.9513 11.978 41.0653 11.7155 41.0653 11.4067C41.0653 11.1067 40.9587 10.8354 40.7507 10.6021L38.3061 7.89642Z" fill="#00ADC6"/>
</g>
<path fill-rule="evenodd" clip-rule="evenodd" d="M56.3564 7.79191C56.3564 8.42577 56.1929 8.93693 55.8566 9.35415C55.529 9.76047 55.121 9.95817 54.6092 9.95817C54.0881 9.95817 53.6756 9.76071 53.3483 9.35415C53.012 8.93718 52.8488 8.42603 52.8488 7.79191C52.8488 7.15829 53.0119 6.64974 53.3476 6.23745C53.6752 5.83529 54.0876 5.63991 54.6092 5.63991C55.1301 5.63991 55.5403 5.83502 55.8631 6.23641C56.1951 6.64896 56.3564 7.15803 56.3564 7.79191ZM57.8843 5.64225C57.5754 5.00786 57.148 4.50397 56.6139 4.14488C56.0766 3.78448 55.4705 3.60156 54.8114 3.60156C54.3552 3.60156 53.9128 3.71858 53.4965 3.9495C53.2458 4.08883 53.0265 4.244 52.8405 4.4142C52.7918 4.28577 52.742 3.60156 51.8872 3.60156C51.5929 3.60156 51.3446 3.7095 51.1498 3.92225C50.9562 4.13321 50.8584 4.54004 50.8584 4.84932V13.6055C50.8584 13.9259 50.957 14.1929 51.152 14.3992C51.3467 14.6059 51.5941 14.7105 51.8872 14.7105C52.1811 14.7105 52.429 14.6026 52.6249 14.3896C52.8179 14.1784 52.9159 13.9147 52.9159 13.6055V11.3079C53.1063 11.4527 53.3195 11.5827 53.5539 11.6966C53.963 11.8956 54.4042 11.9965 54.8652 11.9965C55.5072 11.9965 56.1028 11.8133 56.6347 11.4524C57.1646 11.0936 57.5875 10.5866 57.8919 9.94676C58.1937 9.31184 58.3466 8.58691 58.3466 7.79191C58.3466 6.9964 58.1912 6.273 57.8843 5.64225Z" fill="#00ADC6"/>
<path fill-rule="evenodd" clip-rule="evenodd" d="M47.0739 8.286C47.0739 8.90381 46.9138 9.39968 46.5843 9.80168C46.2631 10.1938 45.8581 10.3843 45.3463 10.3843C44.8352 10.3843 44.4329 10.1941 44.1161 9.8027C43.7905 9.40069 43.6322 8.90457 43.6322 8.286C43.6322 7.66769 43.7928 7.1693 44.1224 6.76275C44.4439 6.36631 44.8441 6.17378 45.3463 6.17378C45.8574 6.17378 46.2623 6.36657 46.5836 6.76275C46.9137 7.16956 47.0739 7.66795 47.0739 8.286ZM48.8365 4.48961C48.6415 4.28823 48.3943 4.18628 48.1016 4.18628C47.8073 4.18628 47.5592 4.29152 47.3642 4.49897C47.2643 4.60498 47.1902 4.72465 47.1415 4.85696C46.9279 4.69909 46.6867 4.56197 46.4208 4.44763C46.0183 4.27432 45.5813 4.18628 45.1233 4.18628C44.4817 4.18628 43.8865 4.36489 43.3538 4.7168C42.824 5.06719 42.4008 5.56103 42.0967 6.18492C41.7951 6.80398 41.6421 7.51085 41.6421 8.286C41.6421 9.06219 41.7975 9.76728 42.1043 10.382C42.4132 11.0009 42.8405 11.4922 43.3749 11.8421C43.9113 12.1935 44.5177 12.3718 45.1772 12.3718C45.6306 12.3718 46.0687 12.2681 46.4789 12.0639C46.7411 11.9331 46.9708 11.7829 47.1662 11.6146C47.1691 11.7806 47.4343 12.3711 48.1016 12.3711C48.3955 12.3711 48.6437 12.2658 48.839 12.0584C49.0324 11.8527 49.1303 11.5954 49.1303 11.2938V5.26377C49.1303 4.95184 49.0316 4.6915 48.8368 4.48987L48.8365 4.48961Z" fill="#00ADC6"/>
<path fill-rule="evenodd" clip-rule="evenodd" d="M30.3694 8.286C30.3694 8.90381 30.2092 9.39968 29.8797 9.80168C29.5585 10.1938 29.1535 10.3843 28.6417 10.3843C28.1306 10.3843 27.7283 10.1941 27.4115 9.8027C27.0859 9.40069 26.9276 8.90457 26.9276 8.286C26.9276 7.66769 27.0882 7.1693 27.4178 6.76275C27.7393 6.36631 28.1395 6.17378 28.6417 6.17378C29.1528 6.17378 29.5577 6.36657 29.879 6.76275C30.2091 7.16956 30.3694 7.66795 30.3694 8.286ZM32.132 4.48961C31.9369 4.28823 31.6897 4.18628 31.397 4.18628C31.1027 4.18628 30.8546 4.29152 30.6596 4.49897C30.5598 4.60498 30.4856 4.72465 30.4369 4.85696C30.2233 4.69909 29.9821 4.56197 29.7163 4.44763C29.3137 4.27432 28.8767 4.18628 28.4187 4.18628C27.7771 4.18628 27.182 4.36489 26.6492 4.7168C26.1194 5.06719 25.6962 5.56103 25.3922 6.18492C25.0906 6.80398 24.9375 7.51085 24.9375 8.286C24.9375 9.06219 25.093 9.76728 25.3998 10.382C25.7086 11.0009 26.1359 11.4922 26.6703 11.8421C27.2067 12.1935 27.8131 12.3718 28.4727 12.3718C28.926 12.3718 29.3641 12.2681 29.7743 12.0639C30.0365 11.9331 30.2663 11.7829 30.4616 11.6146C30.4646 11.7806 30.7297 12.3711 31.397 12.3711C31.6909 12.3711 31.9391 12.2658 32.1344 12.0584C32.3278 11.8527 32.4257 11.5954 32.4257 11.2938V5.26377C32.4257 4.95184 32.327 4.6915 32.1322 4.48987L32.132 4.48961Z" fill="#00ADC6"/>
<path fill-rule="evenodd" clip-rule="evenodd" d="M14.5692 7.40203C14.5692 11.4385 11.3455 14.7105 7.36881 14.7105C3.39235 14.7105 0.168701 11.4385 0.168701 7.40203C0.168701 3.36558 3.39235 0.0935059 7.36881 0.0935059C11.3455 0.0935059 14.5692 3.36558 14.5692 7.40203Z" fill="#0069B1"/>
<path fill-rule="evenodd" clip-rule="evenodd" d="M14.5692 7.37844C14.5692 9.98791 13.2102 12.2718 11.172 13.5413L6.19472 11.766H6.1925L5.75409 11.6104C5.74941 11.6057 5.74203 11.6029 5.7344 11.6004C5.7024 11.5882 5.67065 11.5731 5.63619 11.5556C5.61378 11.5478 5.59163 11.5403 5.56948 11.5278C5.53994 11.513 5.51039 11.5005 5.48357 11.4877C5.38486 11.4379 5.29156 11.3878 5.19803 11.33C5.16603 11.3099 5.13403 11.2899 5.10449 11.2726C4.89772 11.1421 4.70055 10.9944 4.51863 10.8291C4.49378 10.8066 4.46694 10.7793 4.44209 10.7565C4.25992 10.5864 4.095 10.3986 3.94263 10.1983C3.92023 10.1657 3.89807 10.1357 3.8737 10.1003C3.82201 10.028 3.77277 9.9526 3.72576 9.87522L3.71863 9.86746C3.63739 9.76478 3.57339 9.64733 3.52884 9.5171C3.21892 8.89829 3.04883 8.19233 3.04883 7.44355V7.41099C3.04883 5.53276 4.11247 3.90497 5.76394 3.21629L6.18732 3.06578L11.2461 1.26294C13.2422 2.53762 14.5692 4.80151 14.5692 7.37844Z" fill="#00ADC6"/>
<path fill-rule="evenodd" clip-rule="evenodd" d="M11.1131 9.82605C11.1131 10.1639 10.9623 10.4313 10.7481 10.6338C10.0126 11.32 9.07328 11.787 7.63132 11.787C7.55732 11.787 7.48306 11.787 7.41184 11.7844C7.31914 11.779 7.23175 11.7739 7.14183 11.7656C7.07313 11.7574 7.00696 11.7494 6.94054 11.7385C6.91956 11.7385 6.89834 11.7334 6.87713 11.7306C6.80842 11.7197 6.73974 11.7089 6.67355 11.6927C6.60738 11.6818 6.5412 11.6658 6.47755 11.6493C6.40886 11.6333 6.34268 11.6145 6.27677 11.5954C6.25807 11.59 6.24241 11.5872 6.22397 11.5792C6.15754 11.5603 6.09137 11.5361 6.02519 11.5116C5.98553 11.5008 5.94588 11.4848 5.90901 11.4685C5.84005 11.4415 5.77135 11.4115 5.7024 11.3793C5.68144 11.3711 5.65743 11.3631 5.63622 11.3497C5.60465 11.336 5.5756 11.3226 5.54655 11.3092C5.44604 11.2578 5.35081 11.2065 5.25282 11.147C5.22099 11.1253 5.18942 11.1065 5.1576 11.0876C4.94593 10.9525 4.74464 10.8011 4.55696 10.6309C4.53045 10.6067 4.50392 10.5796 4.47765 10.5554C4.29227 10.3797 4.12304 10.1879 3.96695 9.98C3.94296 9.94751 3.91946 9.91528 3.89547 9.87995C3.84269 9.80439 3.79242 9.72882 3.74468 9.64784L3.73685 9.6396C3.65198 9.53412 3.58581 9.41265 3.5411 9.28036C3.22361 8.64286 3.04883 7.91612 3.04883 7.14349V7.11126C3.04883 5.10384 4.22357 3.37497 6.02796 2.71605C6.52807 2.53218 7.07591 2.43213 7.66316 2.43213C8.99372 2.43213 9.928 2.79962 10.6658 3.43737C10.8327 3.57508 11.0603 3.87475 11.0603 4.30956C11.0603 4.94989 10.5521 5.45251 9.928 5.45251C9.5999 5.45251 9.35364 5.31739 9.20538 5.19849C8.76363 4.84725 8.30343 4.62856 7.64698 4.62856C6.39849 4.62856 5.51195 5.75501 5.51195 7.07592V7.11126C5.51195 7.52439 5.59152 7.91071 5.737 8.2537C5.77135 8.34009 5.81378 8.42133 5.85849 8.5023C5.8691 8.51855 5.87719 8.53479 5.88779 8.55105C5.94058 8.64002 5.99893 8.72125 6.06232 8.79966C6.08354 8.83189 6.10981 8.85896 6.13658 8.88862C6.15224 8.90745 6.17093 8.92654 6.18659 8.94536C6.21564 8.97217 6.24494 9.00209 6.27677 9.03175C6.31111 9.06425 6.34823 9.09674 6.38789 9.12897C6.41693 9.15606 6.45129 9.17746 6.48312 9.19912C6.49625 9.21279 6.51217 9.22362 6.53059 9.23445C6.56495 9.2587 6.60233 9.2832 6.64173 9.30486C6.67886 9.32883 6.71852 9.34792 6.75818 9.36932C6.864 9.42348 6.97514 9.46654 7.09157 9.49905C7.13652 9.51272 7.18173 9.52612 7.23175 9.53695H7.23705C7.27923 9.54779 7.32723 9.55578 7.3747 9.56378C7.39062 9.56661 7.40628 9.56661 7.42244 9.57202C7.45655 9.57461 7.48837 9.58028 7.52549 9.58028C7.55176 9.58544 7.58107 9.58544 7.61289 9.58828C7.65533 9.59111 7.6975 9.59368 7.74245 9.59368C8.2769 9.59368 8.71336 9.4369 9.11294 9.1723C9.17381 9.13181 9.23721 9.08848 9.29808 9.04258C9.31398 9.03175 9.32737 9.02092 9.34025 9.00752C9.35641 8.99669 9.37208 8.98585 9.388 8.97217C9.4039 8.95903 9.41982 8.94536 9.44104 8.93453C9.45948 8.92085 9.48069 8.90745 9.50443 8.89404C9.57591 8.85355 9.658 8.81564 9.75044 8.78598C9.84566 8.75633 9.94896 8.73724 10.0601 8.73724C10.6501 8.73724 11.1131 9.22362 11.1131 9.82605Z" fill="#FEFEFE"/>
<path fill-rule="evenodd" clip-rule="evenodd" d="M5.92883 8.86235C5.92883 9.17174 5.81055 9.45284 5.61414 9.66C5.40763 9.88984 5.11048 10.0331 4.77799 10.0331C4.41787 10.0331 4.10077 9.86423 3.8892 9.60631L3.88152 9.59874C3.80074 9.49871 3.73799 9.38403 3.69521 9.25861C3.65001 9.13588 3.62476 9.00046 3.62476 8.86235C3.62476 8.2182 4.14091 7.69434 4.77799 7.69434C4.89387 7.69434 5.00711 7.71238 5.11289 7.74826C5.40018 7.83488 5.63673 8.03422 5.78026 8.29237C5.87595 8.45878 5.92883 8.65544 5.92883 8.86235Z" fill="#98C93C"/>
</svg>
