<svg width="90" height="14" viewBox="0 0 90 14" fill="none" xmlns="http://www.w3.org/2000/svg">
<path d="M18.3736 8.86228H17.5962V3.73422L16.0074 7.23543H15.5511L13.9962 3.7165V8.84474H13.2864V2.90308H14.3173L15.8384 6.22747L17.3257 2.90308H18.3905V8.84474H18.3736V8.86228Z" fill="#021D34"/>
<path fill-rule="evenodd" clip-rule="evenodd" d="M23.8083 8.86217H24.6196L22.5913 2.88525H21.5773L19.4985 8.86217H20.276L20.8168 7.19989H23.2675L23.8083 8.86217ZM22.0002 3.575L23.0141 6.52803H20.9862L22.0002 3.575Z" fill="#021D34"/>
<path d="M29.9867 7.60665C29.9022 7.94258 29.7501 8.17239 29.5303 8.42008C29.3275 8.63216 29.1078 8.75601 28.8374 8.86214C28.567 8.96827 28.2627 8.98598 27.9416 8.98598C27.5867 8.98598 27.2487 8.95055 26.9952 8.86214C26.7417 8.77372 26.5051 8.61462 26.3023 8.42008C26.0994 8.20799 25.9473 7.94276 25.8459 7.60665C25.7614 7.30598 25.7275 6.93462 25.7275 6.45713V2.90276H26.505V6.52782C26.505 6.86375 26.5388 7.09373 26.5727 7.30581C26.6066 7.5179 26.6572 7.67718 26.8093 7.81857C26.8938 7.99539 27.0628 8.11924 27.2656 8.20765C27.4683 8.29606 27.6881 8.33149 27.9755 8.33149C28.229 8.33149 28.4994 8.29606 28.6853 8.20765C28.888 8.11924 29.0403 7.99556 29.1415 7.81857C29.226 7.64174 29.3105 7.48264 29.3781 7.27021C29.412 7.05812 29.4457 6.82832 29.4457 6.52765V2.90259L30.105 2.90259V6.45713C30.105 6.89919 30.0712 7.27055 29.9867 7.60665Z" fill="#021D34"/>
<path fill-rule="evenodd" clip-rule="evenodd" d="M36.046 7.04075C36.046 7.37668 35.9784 7.67735 35.8094 7.94258C35.6404 8.20782 35.4545 8.45534 35.201 8.61444C34.9475 8.77372 34.6601 8.86196 34.3391 8.86196H31.3308V2.74365H34.0519C34.4068 2.74365 34.7448 2.81452 35.0322 2.99117C35.3195 3.16782 35.5222 3.36254 35.6743 3.62777C35.7927 3.89301 35.8771 4.19368 35.8771 4.51189C35.8771 5.02465 35.7082 5.39618 35.4208 5.66142C35.8094 5.94437 36.046 6.43958 36.046 7.04075ZM34.694 4.49435C34.694 4.31752 34.6264 4.19368 34.525 4.10526C34.4405 4.01685 34.2884 3.92844 34.1701 3.92844H32.4631V4.98938H34.1363C34.3053 4.98938 34.4574 4.91852 34.5588 4.86554C34.6601 4.7773 34.694 4.67117 34.694 4.49435ZM34.7108 6.4573C34.8461 6.59869 34.9136 6.75797 34.9136 6.93462C34.9136 7.0939 34.863 7.27055 34.7783 7.37702C34.6601 7.53613 34.5248 7.62454 34.2883 7.62454H32.4799V6.20978H34.1868C34.4234 6.20978 34.5926 6.33345 34.7108 6.4573Z" fill="#021D34"/>
<path d="M41.5145 8.86214H37.1541V2.74365H41.43V3.94616H38.3203V4.97184H40.1117V6.17434H38.3203V7.62437H41.5145V8.86214Z" fill="#021D34"/>
<path d="M46.9827 8.86214H42.6223V2.74365H43.7716V7.65963H46.9658V8.86214H46.9827Z" fill="#021D34"/>
<path fill-rule="evenodd" clip-rule="evenodd" d="M52.7554 8.86224H54.0229L51.6907 2.7085H50.4569L48.0906 8.86224H49.3582L49.8991 7.44748H52.2313L52.7554 8.86224ZM51.0992 4.51217L51.7413 6.22743H50.3895L51.0992 4.51217Z" fill="#021D34"/>
<path d="M59.8968 6.36889C59.8968 6.91707 59.8122 7.39439 59.6095 7.74821C59.4068 8.11958 59.1194 8.42008 58.7645 8.65005C58.4095 8.89757 58.0209 8.98598 57.6152 8.98598C56.9731 8.98598 56.4661 8.7739 55.9928 8.42008C55.5366 8.04871 55.2829 7.60665 55.1309 7.12916L56.28 6.75797C56.5336 7.42983 56.9898 7.78348 57.5984 7.78348C57.8856 7.78348 58.173 7.65963 58.4097 7.41228C58.6463 7.16476 58.7646 6.86392 58.7646 6.51045V2.74365H59.897V6.36889H59.8968Z" fill="#021D34"/>
<path fill-rule="evenodd" clip-rule="evenodd" d="M65.6357 8.86224H66.9034L64.6048 2.7085H63.3712L61.0049 8.86224H62.2725L62.8134 7.44748H65.0949L65.6357 8.86224ZM64.0135 4.51217L64.6556 6.22743H63.3038L64.0135 4.51217Z" fill="#021D34"/>
<path fill-rule="evenodd" clip-rule="evenodd" d="M71.5269 8.86214H72.7607L71.8312 6.29802C72.389 5.90894 72.6763 5.39618 72.6763 4.67117C72.6763 4.33507 72.5917 4.06983 72.4227 3.7339C72.2538 3.39797 72.0171 3.18571 71.7298 3.00889C71.4424 2.83206 71.0875 2.74365 70.665 2.74365H68.0115V8.86214H69.1608V6.56343H70.7156L71.5269 8.86214ZM71.3242 4.17613C71.4593 4.28209 71.5269 4.44137 71.5269 4.65345C71.5269 4.86571 71.4593 5.04253 71.3242 5.13095C71.172 5.27251 71.0367 5.3432 70.8001 5.3432H69.2116V3.96387H70.8001C71.0031 3.96387 71.2058 4.05229 71.3242 4.17613Z" fill="#021D34"/>
<path fill-rule="evenodd" clip-rule="evenodd" d="M78.1783 8.86217H78.9896L76.9446 2.88525H75.9305L73.8687 8.86217H74.6461L75.1868 7.19989H77.6374L78.1783 8.86217ZM76.3701 3.575L77.3841 6.52803H75.3729L76.3701 3.575Z" fill="#021D34"/>
<path fill-rule="evenodd" clip-rule="evenodd" d="M83.697 5.44923C83.7817 5.21943 83.8154 4.97191 83.8154 4.70668C83.8154 4.37075 83.7817 4.05236 83.6804 3.82238C83.5283 3.59258 83.3929 3.4333 83.1565 3.25648C83.1498 3.25333 83.1432 3.25016 83.1365 3.24697C82.9549 3.16055 82.7423 3.05942 82.5142 2.99124C82.2945 2.93827 82.0072 2.90283 81.6523 2.90283H80.0974V8.91519H80.8748V6.66928H81.6184C82.024 6.66928 82.3789 6.58104 82.6324 6.49246C82.9197 6.3865 83.1394 6.22722 83.3422 6.01514C83.3754 5.96562 83.4112 5.91749 83.4473 5.86881C83.5404 5.74365 83.6362 5.61481 83.697 5.44923ZM82.9535 4.19375C83.0043 4.37057 83.0381 4.52968 83.0381 4.74194C83.0381 4.80518 83.0328 4.87115 83.0273 4.93768C83.0191 5.03872 83.0108 5.14104 83.021 5.23698C82.9704 5.36082 82.8859 5.50221 82.7675 5.62606C82.6324 5.76745 82.4803 5.8206 82.2775 5.89129C82.0748 5.94444 81.8213 5.97988 81.5339 5.97988H80.8918V3.57487H81.6353C81.8551 3.57487 82.0411 3.59258 82.2099 3.64556C82.3789 3.69854 82.514 3.75152 82.6324 3.82238C82.7846 3.92851 82.8859 4.01693 82.9535 4.19375Z" fill="#021D34"/>
<path fill-rule="evenodd" clip-rule="evenodd" d="M88.418 8.95055H89.2293L87.1844 2.97363H86.1704L84.1084 8.95055H84.8858L85.4267 7.28844H87.8771L88.418 8.95055ZM86.6097 3.66321L87.6236 6.61624H85.6126L86.6097 3.66321Z" fill="#021D34"/>
<path d="M8.91628 4.44556C8.91628 4.48124 8.91628 4.51692 8.91628 4.5347C8.91628 6.47899 7.31536 8.04857 5.33238 8.04857C3.34928 8.04857 1.73023 6.47899 1.73023 4.5347C1.73023 4.49913 1.73023 4.46334 1.73023 4.44556H0.766113C0.838898 7.70956 5.33238 13.2211 5.33238 13.2211C5.33238 13.2211 9.844 7.70956 9.91678 4.44556H8.91628Z" fill="#7CCFE2"/>
<path fill-rule="evenodd" clip-rule="evenodd" d="M5.33238 0.0578613C7.87927 0.0578613 9.89864 2.216 9.93503 4.03535C9.97143 6.51473 7.87927 8.06642 5.33238 8.08421C2.76723 8.08421 0.693328 6.51473 0.72972 4.03535C0.766112 2.216 2.78537 0.0578613 5.33238 0.0578613ZM1.74848 4.55266C1.74848 6.49683 3.34928 8.06642 5.33238 8.06642C7.31536 8.06642 8.91628 6.47894 8.91628 4.53476C8.91628 2.59059 7.31536 1.02111 5.33238 1.02111C3.34928 1.02111 1.74848 2.60848 1.74848 4.55266Z" fill="#1290A1"/>
<path d="M1.73029 4.53476C1.73029 2.59059 3.33121 1.02111 5.33245 1.02111C7.33368 1.02111 8.91635 2.59059 8.91635 4.53476C8.91635 5.05207 8.78903 5.58716 8.57079 6.0151C8.89821 5.42654 9.00738 4.71316 8.95274 4.01746C8.7345 1.96635 7.15172 0.307621 5.33256 0.0578613C3.49515 0.271941 1.94876 1.96635 1.71227 4.01746C1.62134 4.74884 1.78505 5.44444 2.09433 6.0151C1.87586 5.55148 1.73029 5.05207 1.73029 4.53476Z" fill="#136D79"/>
<path d="M5.33246 8.06634C4.93226 8.06634 4.5502 7.99498 4.18628 7.88794C4.5502 7.99487 4.9504 8.06634 5.33246 8.06634C5.71453 8.06634 6.11473 7.99498 6.47854 7.88794C6.11473 7.99487 5.75081 8.06634 5.33246 8.06634Z" fill="#136D79"/>
<path d="M5.27763 6.30055H3.53125V2.80469H3.74949L5.27763 4.14241V6.30055Z" fill="#B9F2FE"/>
<path d="M5.42334 6.30055H7.18797V2.80469H6.93334L5.42334 4.14241V6.30055Z" fill="#7CCFE2"/>
</svg>
